# xmcd
#
# Track frame offsets:
#	150
#	9528
#	30552
#	48188
#	64864
#	81886
#	101234
#	116139
#	132586
#
# Disc length: 1988 seconds
#
# Revision: 1
# Processed by: cddbd v1.5.1PL0 Copyright (c) Steve Scherf et al.
# Submitted via: audiograbber 1.83.01
#
DISCID=7807c209
DTITLE=J-Spliff - Homesick
DYEAR=1900
DGENRE=Rap
TTITLE0=Intro
TTITLE1=Keep It Simple
TTITLE2=Rhymewriter Micholder
TTITLE3=Lost Souls
TTITLE4=Not Many (Feat. John B)
TTITLE5=Homesick (Feat. Pablo Superb)
TTITLE6=Can't Get Perfect
TTITLE7=Elevate
TTITLE8=What's That Shinin'? (Feat. Mr. Malchau)
EXTD=
EXTT0=
EXTT1=
EXTT2=
EXTT3=
EXTT4=
EXTT5=
EXTT6=
EXTT7=
EXTT8=
PLAYORDER=
